<?xml version="1.0" encoding="UTF-8"?>
<svg xmlns="http://www.w3.org/2000/svg" viewBox="0 0 256 256">
  <!-- CC0 original token: Mage silhouette inside a circle -->
  <defs>
    <radialGradient id="g" cx="50%" cy="45%" r="60%">
      <stop offset="0%" stop-color="#4f46e5"/>
      <stop offset="100%" stop-color="#1e1b4b"/>
    </radialGradient>
    <filter id="s" x="-20%" y="-20%" width="140%" height="140%">
      <feDropShadow dx="0" dy="2" stdDeviation="2" flood-color="#000" flood-opacity="0.4"/>
    </filter>
  </defs>
  <circle cx="128" cy="128" r="120" fill="url(#g)" stroke="#0ea5e9" stroke-width="6"/>
  <!-- Hat -->
  <path d="M64 120c28-22 100-22 128 0c-20 6-40 10-64 10s-44-4-64-10z" fill="#0ea5e9" opacity="0.85"/>
  <path d="M90 110c20-18 30-34 38-58c10 24 20 38 40 58c-18-6-38-9-40-9s-22 3-38 9z" fill="#a78bfa"/>
  <!-- Face/beard -->
  <circle cx="128" cy="145" r="22" fill="#f8fafc"/>
  <path d="M106 156c10 18 34 18 44 0c-6 10-13 26-22 26s-16-16-22-26z" fill="#e5e7eb"/>
  <!-- Staff -->
  <path d="M176 78c12 0 22 10 22 22s-10 22-22 22c-3 0-6-1-9-2l-34 68c-2 4-7 6-11 3s-6-7-3-11l34-68c-1-3-2-6-2-9c0-12 10-22 22-22z" fill="#f59e0b" filter="url(#s)"/>
  <!-- Rim shine -->
  <circle cx="128" cy="128" r="120" fill="none" stroke="#93c5fd" stroke-width="3" opacity="0.35"/>
</svg>
