<?xml version="1.0" encoding="UTF-8"?>
<svg xmlns="http://www.w3.org/2000/svg" viewBox="0 0 256 256">
  <!-- CC0 original token: Fighter silhouette inside a circle -->
  <defs>
    <radialGradient id="g2" cx="50%" cy="45%" r="60%">
      <stop offset="0%" stop-color="#16a34a"/>
      <stop offset="100%" stop-color="#064e3b"/>
    </radialGradient>
    <filter id="s2" x="-20%" y="-20%" width="140%" height="140%">
      <feDropShadow dx="0" dy="2" stdDeviation="2" flood-color="#000" flood-opacity="0.4"/>
    </filter>
  </defs>
  <circle cx="128" cy="128" r="120" fill="url(#g2)" stroke="#22d3ee" stroke-width="6"/>
  <!-- Shield -->
  <path d="M128 64c20 12 44 12 64 18c-2 54-18 92-64 110c-46-18-62-56-64-110c20-6 44-6 64-18z" fill="#f8fafc" opacity="0.95"/>
  <path d="M128 82c14 8 30 9 44 12c-2 40-12 66-44 80c-32-14-42-40-44-80c14-3 30-4 44-12z" fill="#e5e7eb"/>
  <!-- Sword -->
  <rect x="120" y="84" width="16" height="84" rx="4" fill="#94a3b8" filter="url(#s2)"/>
  <rect x="108" y="160" width="40" height="10" rx="3" fill="#334155"/>
  <circle cx="128" cy="172" r="8" fill="#f59e0b"/>
  <!-- Rim shine -->
  <circle cx="128" cy="128" r="120" fill="none" stroke="#bbf7d0" stroke-width="3" opacity="0.35"/>
</svg>
